<?xml version="1.0" encoding="UTF-8"?>
<svg width="119px" height="40px" viewBox="0 0 119 40" version="1.1" xmlns="http://www.w3.org/2000/svg" xmlns:xlink="http://www.w3.org/1999/xlink">
    <!-- Generator: Sketch 52.6 (67491) - http://www.bohemiancoding.com/sketch -->
    <title>App Store</title>
    <desc>Created with Sketch.</desc>
    <g id="Once-Places---DESKTOP" stroke="none" stroke-width="1" fill="none" fill-rule="evenodd">
        <g id="OncePlaces_D_08_submit-dialog_FR" transform="translate(-529.000000, -1868.000000)">
            <g id="Group-4" transform="translate(380.000000, 1867.000000)">
                <g id="App-Store" transform="translate(149.000000, 1.000000)">
                    <g>
                        <rect id="background" fill="#000000" x="0" y="0" width="119" height="40" rx="4.2"></rect>
                        <g id="icon" transform="translate(9.410272, 7.040000)" fill="#FFFFFF">
                            <path d="M16.6408802,12.0443384 C16.6149523,9.18310864 19.0003167,7.79111104 19.1093926,7.72630503 C17.758461,5.77058392 15.6645616,5.5033701 14.9287465,5.48206401 C13.1701214,5.29829902 11.4642461,6.52694996 10.5683933,6.52694996 C9.6546593,6.52694996 8.27511761,5.49981908 6.78828815,5.5300027 C4.87498988,5.55929857 3.08507253,6.65922524 2.10338958,8.36726311 C0.0774391683,11.8499204 1.58840836,16.9678197 3.52942264,19.7828863 C4.50037681,21.1624553 5.6349448,22.7009322 7.11998613,22.6467793 C8.57284112,22.5881875 9.11553834,21.7270666 10.868799,21.7270666 C12.6059666,21.7270666 13.1155834,22.6467793 14.6301289,22.6112691 C16.1893776,22.5881875 17.1710605,21.2272613 18.1080402,19.8352637 C19.2300913,18.2568379 19.6806999,16.6988304 19.6985812,16.6189325 C19.6628186,16.6073917 16.6712784,15.4737304 16.6408802,12.0443384" id="Fill-2"></path>
                            <path d="M13.7798734,3.63021007 C14.5612859,2.65989542 15.0959365,1.33980586 14.9475218,0.000185725019 C13.8165301,0.0498999249 12.4021199,0.776970098 11.587627,1.72597866 C10.8670109,2.56224252 10.2232844,3.93293403 10.3895804,5.22195222 C11.6600462,5.31605409 12.9644865,4.58543291 13.7798734,3.63021007" id="Fill-3"></path>
                        </g>
                        <g transform="translate(35.917381, 16.377143)" fill="#FFFFFF">
                            <path d="M11.17737,13.1116674 L9.14694925,13.1116674 L8.03473287,9.64143866 L4.16879748,9.64143866 L3.10933091,13.1116674 L1.13255406,13.1116674 L4.96362092,1.29744287 L7.32931589,1.29744287 L11.17737,13.1116674 L11.17737,13.1116674 Z M7.69945864,8.18552281 L6.69363595,5.10146691 C6.58724226,4.78542664 6.38697179,4.04326466 6.09371859,2.87498096 L6.05795601,2.87498096 C5.93993948,3.37744948 5.75129185,4.11961146 5.49290717,5.10146691 L4.50407171,8.18552281 L7.69945864,8.18552281 L7.69945864,8.18552281 Z" id="Fill-4"></path>
                            <path d="M21.0102926,8.74747082 C21.0102926,10.1962846 20.614222,11.3414867 19.8211867,12.1821894 C19.1112994,12.9305656 18.2288576,13.3043099 17.1765435,13.3043099 C16.0401874,13.3043099 15.2230124,12.9021575 14.7268065,12.0951895 L14.7268065,16.5650287 L12.8206607,16.5650287 L12.8206607,7.39275887 C12.8206607,6.48281146 12.796521,5.54978246 12.7500296,4.59278412 L14.4264008,4.59278412 L14.5327945,5.94394505 L14.5685571,5.94394505 C15.204237,4.9256917 16.1689327,4.41700891 17.4635383,4.41700891 C18.4756194,4.41700891 19.3205105,4.81383475 19.9964233,5.6083742 C20.6714421,6.40468915 21.0102926,7.45046285 21.0102926,8.74747082 L21.0102926,8.74747082 Z M19.0683843,8.8167156 C19.0683843,7.98755376 18.8806307,7.30398351 18.5033354,6.76600485 C18.0911716,6.20583235 17.5377456,5.92441447 16.8439515,5.92441447 C16.3736735,5.92441447 15.9463106,6.0806591 15.564545,6.38959734 C15.1818854,6.69942333 14.9315473,7.10512671 14.8144248,7.60848299 C14.7554166,7.84196218 14.7259124,8.03282919 14.7259124,8.1837473 L14.7259124,9.60592852 C14.7259124,10.223805 14.9172423,10.7466919 15.2999019,11.1745891 C15.6825616,11.6007108 16.1796615,11.8146594 16.7912017,11.8146594 C17.5091356,11.8146594 18.067926,11.538568 18.4675728,10.9908241 C18.8681138,10.4413046 19.0683843,9.71689771 19.0683843,8.8167156 L19.0683843,8.8167156 Z" id="Fill-5"></path>
                            <path d="M30.8780837,8.74747082 C30.8780837,10.1962846 30.4820131,11.3414867 29.6889778,12.1821894 C28.9781964,12.9305656 28.0966487,13.3043099 27.0434406,13.3043099 C25.9079785,13.3043099 25.0908035,12.9021575 24.5937036,12.0951895 L24.5937036,16.5650287 L22.6875578,16.5650287 L22.6875578,7.39275887 C22.6875578,6.48281146 22.6634181,5.54978246 22.6169267,4.59278412 L24.2932979,4.59278412 L24.3996915,5.94394505 L24.4354541,5.94394505 C25.07024,4.9256917 26.0349357,4.41700891 27.3304353,4.41700891 C28.3416224,4.41700891 29.1874075,4.81383475 29.8642145,5.6083742 C30.5383392,6.40468915 30.8780837,7.45046285 30.8780837,8.74747082 L30.8780837,8.74747082 Z M28.9352813,8.8167156 C28.9352813,7.98755376 28.7466337,7.30398351 28.3693384,6.76600485 C27.9580687,6.20583235 27.4055368,5.92441447 26.7117426,5.92441447 C26.2414646,5.92441447 25.8141018,6.0806591 25.430548,6.38959734 C25.0487825,6.69942333 24.7984444,7.10512671 24.6813219,7.60848299 C24.6232077,7.84196218 24.5919154,8.03282919 24.5919154,8.1837473 L24.5919154,9.60592852 C24.5919154,10.223805 24.7841393,10.7466919 25.1650109,11.1745891 C25.5476705,11.599823 26.0447704,11.8146594 26.6580988,11.8146594 C27.3769267,11.8146594 27.9357171,11.538568 28.3344699,10.9908241 C28.7350109,10.4413046 28.9352813,9.71689771 28.9352813,8.8167156 L28.9352813,8.8167156 Z" id="Fill-6"></path>
                            <path d="M41.9108411,9.79857104 C41.9108411,10.8035081 41.5576855,11.6211291 40.8531626,12.2523219 C40.0789027,12.9412187 38.9979785,13.2865548 37.6121784,13.2865548 C36.3318779,13.2865548 35.3054917,13.0415348 34.5312317,12.5506071 L34.9720056,10.973069 C35.807956,11.4639967 36.7261604,11.7099045 37.7257246,11.7099045 C38.4445526,11.7099045 39.0033429,11.5483333 39.4020958,11.2278543 C39.8026367,10.9055997 40.0038012,10.4768148 40.0038012,9.94061161 C40.0038012,9.46033693 39.8375052,9.05729681 39.5084894,8.72971575 C39.1785796,8.40391019 38.6332002,8.09852296 37.8678809,7.81976834 C35.7847103,7.04831049 34.742231,5.91908795 34.742231,4.43565173 C34.742231,3.46622484 35.1105856,2.67257315 35.8446127,2.0520334 C36.5795338,1.43238141 37.5540642,1.12255541 38.7664158,1.12255541 C39.8491281,1.12255541 40.7512393,1.30987142 41.467385,1.68361567 L40.9890604,3.22653137 C40.3149357,2.86432792 39.5540867,2.68322619 38.7029372,2.68322619 C38.0306006,2.68322619 37.5022085,2.8474606 37.1258072,3.17415391 C36.8084143,3.46622484 36.6465886,3.82221402 36.6465886,4.24478472 C36.6465886,4.71085534 36.8298719,5.0979159 37.1955443,5.40063986 C37.5120432,5.68116999 38.0896089,5.98566946 38.9246652,6.31236278 C39.9492633,6.72250493 40.7011716,7.20011635 41.1839665,7.74874805 C41.6694436,8.29737976 41.9108411,8.98183776 41.9108411,9.79857104" id="Fill-7"></path>
                            <path d="M48.2291957,6.01318983 L46.1281438,6.01318983 L46.1281438,10.1492337 C46.1281438,11.2012217 46.4982866,11.725884 47.2403602,11.725884 C47.5809988,11.725884 47.8635233,11.6974759 48.0870394,11.6379964 L48.1397892,13.0752695 C47.7642821,13.2146468 47.2698643,13.2847793 46.6583242,13.2847793 C45.9046277,13.2847793 45.3172272,13.0557389 44.8916525,12.6003213 C44.4678659,12.144016 44.2559725,11.3796601 44.2559725,10.3037028 L44.2559725,6.00963881 L43.0051761,6.00963881 L43.0051761,4.5892331 L44.2559725,4.5892331 L44.2559725,3.02945008 L46.1281438,2.46838983 L46.1281438,4.5892331 L48.2291957,4.5892331 L48.2291957,6.01318983" id="Fill-8"></path>
                            <path d="M57.6901874,8.78209321 C57.6901874,10.0915297 57.3137862,11.1665993 56.5600897,12.0073019 C55.7724188,12.8719739 54.7245751,13.3043099 53.4183467,13.3043099 C52.1577156,13.3043099 51.1554692,12.889729 50.4080311,12.0605671 C49.6605931,11.2314053 49.2868741,10.1856316 49.2868741,8.92413378 C49.2868741,7.60404422 49.6740041,6.52276037 50.4428997,5.68205774 C51.2135834,4.84135511 52.2524864,4.41967217 53.5587148,4.41967217 C54.8184519,4.41967217 55.8287449,4.83602859 56.5949583,5.66430267 C57.3263031,6.46949516 57.6901874,7.50727908 57.6901874,8.78209321 L57.6901874,8.78209321 Z M55.7143046,8.82559313 C55.7143046,8.04525774 55.5444323,7.37589155 55.2037937,6.81571905 C54.8041468,6.13925083 54.2310514,5.80190448 53.4907659,5.80190448 C52.7281288,5.80190448 52.1407284,6.13925083 51.7428696,6.81571905 C51.4004429,7.37589155 51.2314646,8.05679854 51.2314646,8.86110327 C51.2314646,9.64232641 51.4004429,10.3134681 51.7428696,10.8709774 C52.1550334,11.5483333 52.7299169,11.8865674 53.4755668,11.8865674 C54.2033354,11.8865674 54.7746427,11.5403435 55.1885946,10.8549978 C55.5381739,10.281509 55.7143046,9.60770402 55.7143046,8.82559313 L55.7143046,8.82559313 Z" id="Fill-9"></path>
                            <path d="M63.8887374,6.25732206 C63.7000897,6.22269967 63.4980311,6.20583235 63.287926,6.20583235 C62.6173775,6.20583235 62.09882,6.4552911 61.7340417,6.95953513 C61.4166487,7.40341191 61.2583993,7.96447217 61.2583993,8.64182814 L61.2583993,13.1116674 L59.3522535,13.1116674 L59.3522535,7.2755754 C59.3522535,6.29460771 59.3334782,5.39886436 59.2968215,4.59367187 L60.9570995,4.59367187 L61.0268365,6.22358742 L61.0795864,6.22358742 C61.281645,5.66341492 61.5981438,5.21154835 62.0326592,4.874202 C62.458234,4.56881477 62.9159951,4.41700891 63.4104128,4.41700891 C63.5865435,4.41700891 63.745687,4.43032521 63.8869492,4.4516313 L63.8887374,6.25732206" id="Fill-10"></path>
                            <path d="M72.4136435,8.44918562 C72.4136435,8.78830748 72.3912918,9.07416413 72.3439064,9.30764332 L66.6263632,9.30764332 C66.6469267,10.1492337 66.9249808,10.7937428 67.4551611,11.2376196 C67.9370619,11.6335577 68.561119,11.8324145 69.3255443,11.8324145 C70.1722235,11.8324145 70.9446953,11.6992514 71.6393835,11.4293743 L71.9380011,12.7432496 C71.1261904,13.0939123 70.1668591,13.2696875 69.0617952,13.2696875 C67.7314271,13.2696875 66.6871596,12.8808514 65.9272047,12.1049548 C65.169932,11.3281704 64.7890604,10.2832845 64.7890604,8.97651124 C64.7890604,7.69281958 65.1413219,6.62307653 65.8494211,5.76994535 C66.5897066,4.85911019 67.5901649,4.4036926 68.8490078,4.4036926 C70.0854992,4.4036926 71.0215849,4.85911019 71.6563707,5.76994535 C72.1606232,6.491689 72.4136435,7.3865446 72.4136435,8.44918562 L72.4136435,8.44918562 Z M70.5960101,7.95825789 C70.6094211,7.39630989 70.484252,6.91337194 70.2258674,6.50322979 C69.8959575,5.97590418 69.3881288,5.71312912 68.7077456,5.71312912 C68.0836885,5.71312912 67.5767539,5.9696899 67.190518,6.48458697 C66.8731251,6.89384137 66.6844774,7.3865446 66.6263632,7.95648239 L70.5960101,7.95825789 L70.5960101,7.95825789 Z" id="Fill-11"></path>
                        </g>
                        <g id="Available-on-the" transform="translate(36.642499, 6.217143)" fill="#FFFFFF">
                            <path d="M6.05524173,7.22907262 L5.05657156,7.22907262 L4.51029808,5.52369801 L2.61041078,5.52369801 L2.08917111,7.22907262 L1.11732287,7.22907262 L3.00022295,1.42227653 L4.16250695,1.42227653 L6.05524173,7.22907262 L6.05524173,7.22907262 Z M4.34579019,4.80816864 L3.85137246,3.29188554 C3.79951671,3.13652867 3.7038518,2.77521297 3.55633114,2.19817315 L3.53844985,2.19817315 C3.47765345,2.4476319 3.39092919,2.80983535 3.26039575,3.29188554 L2.77491867,4.80816864 L4.34579019,4.80816864 L4.34579019,4.80816864 Z" id="Fill-12"></path>
                            <path d="M10.763386,3.04242679 L9.16658659,7.22907262 L8.25553475,7.22907262 L6.71059109,3.04242679 L7.71730785,3.04242679 L8.43792393,5.25648419 C8.55951671,5.62667743 8.66322821,5.98000335 8.74101183,6.3155742 L8.7669397,6.3155742 C8.83667674,6.01462574 8.94038824,5.66129982 9.07002761,5.25648419 L9.78170304,3.04242679 L10.763386,3.04242679" id="Fill-13"></path>
                            <path d="M14.1626196,7.22907262 L14.0928826,6.74702243 L14.0669547,6.74702243 C13.7808541,7.13497074 13.3642199,7.32406225 12.8349337,7.32406225 C12.0803432,7.32406225 11.5421163,6.79851214 11.5421163,6.0918603 C11.5421163,5.05851514 12.4442275,4.5240875 14.0061583,4.5240875 L14.0061583,4.44685294 C14.0061583,3.89555797 13.711117,3.61946661 13.129975,3.61946661 C12.7133409,3.61946661 12.3485625,3.72333378 12.0284874,3.93018036 L11.8380517,3.31851815 C12.2287579,3.07704918 12.714235,2.95631469 13.2873304,2.95631469 C14.388818,2.95631469 14.9449262,3.53335451 14.9449262,4.68832191 L14.9449262,6.23034986 C14.9449262,6.65292055 14.9628075,6.98050162 15.0057226,7.22996037 L14.1626196,7.22907262 L14.1626196,7.22907262 Z M14.0320862,5.14373949 C12.9905009,5.14373949 12.4701553,5.39408599 12.4701553,5.98799313 C12.4701553,6.42743115 12.7392688,6.64226751 13.1120937,6.64226751 C13.5895242,6.64226751 14.0320862,6.28095181 14.0320862,5.79002409 L14.0320862,5.14373949 L14.0320862,5.14373949 Z" id="Fill-14"></path>
                            <path d="M17.031673,2.35264227 C16.7196444,2.35264227 16.4764589,2.1111733 16.4764589,1.79246976 C16.4764589,1.47376623 16.727691,1.2411748 17.0495543,1.2411748 C17.3705235,1.2411748 17.6306963,1.47376623 17.6217556,1.79246976 C17.6217556,2.12892837 17.3794641,2.35264227 17.031673,2.35264227 L17.031673,2.35264227 Z M16.5810644,3.04242679 L17.5180441,3.04242679 L17.5180441,7.22907262 L16.5810644,7.22907262 L16.5810644,3.04242679 Z" id="Fill-15"></path>
                            <polygon id="Fill-16" points="19.1827924 1.12132807 20.1197722 1.12132807 20.1197722 7.22907262 19.1827924 7.22907262"></polygon>
                            <path d="M24.1019359,7.22907262 L24.0313048,6.74702243 L24.006271,6.74702243 C23.7201704,7.13497074 23.3035362,7.32406225 22.77425,7.32406225 C22.0196595,7.32406225 21.4814326,6.79851214 21.4814326,6.0918603 C21.4814326,5.05851514 22.3835438,4.5240875 23.9454746,4.5240875 L23.9454746,4.44685294 C23.9454746,3.89555797 23.6504333,3.61946661 23.0692913,3.61946661 C22.6526572,3.61946661 22.2878788,3.72333378 21.9678037,3.93018036 L21.7764739,3.3176304 C22.1671801,3.07616143 22.6526572,2.95542694 23.2257526,2.95542694 C24.3272402,2.95542694 24.8842425,3.53246676 24.8842425,4.68743415 L24.8842425,6.2294621 C24.8842425,6.6520328 24.9021238,6.97961387 24.9432507,7.22907262 L24.1019359,7.22907262 L24.1019359,7.22907262 Z M23.9714025,5.14373949 C22.9298172,5.14373949 22.4094716,5.39408599 22.4094716,5.98799313 C22.4094716,6.42743115 22.6785851,6.64226751 23.05141,6.64226751 C23.5288405,6.64226751 23.9714025,6.28095181 23.9714025,5.79002409 L23.9714025,5.14373949 L23.9714025,5.14373949 Z" id="Fill-17"></path>
                            <path d="M28.6795468,7.32406225 C28.0814175,7.32406225 27.6397496,7.07371575 27.3527549,6.58278802 L27.3348736,6.58278802 L27.2812297,7.22907262 L26.4837241,7.22907262 C26.5087579,6.89350177 26.5176985,6.51354324 26.5176985,6.10073783 L26.5176985,1.12132807 L27.4564664,1.12132807 L27.4564664,3.65497675 L27.4734536,3.65497675 C27.7515077,3.18979388 28.2021163,2.95720245 28.8181268,2.95720245 C29.8337842,2.95720245 30.5454596,3.81921116 30.5454596,5.07627022 C30.5454596,6.37594144 29.7551065,7.32406225 28.6795468,7.32406225 L28.6795468,7.32406225 Z M28.489111,3.68782363 C27.94999,3.68782363 27.4564664,4.1530065 27.4564664,4.7992911 L27.4564664,5.5316878 C27.4564664,6.10872762 27.8999224,6.58278802 28.4721238,6.58278802 C29.1739645,6.58278802 29.5923867,6.01462574 29.5923867,5.11000485 C29.5914927,4.26575121 29.1569773,3.68782363 28.489111,3.68782363 L28.489111,3.68782363 Z" id="Fill-18"></path>
                            <polygon id="Fill-19" points="31.9321538 1.12132807 32.8682395 1.12132807 32.8682395 7.22907262 31.9321538 7.22907262"></polygon>
                            <path d="M37.967984,5.3594636 L35.1552568,5.3594636 C35.1740321,6.15222754 35.7015302,6.59965534 36.4820486,6.59965534 C36.8995768,6.59965534 37.2813424,6.53041056 37.6192988,6.40168629 L37.7650314,7.04797089 C37.3662785,7.22019508 36.8977887,7.30630718 36.3515152,7.30630718 C35.0318758,7.30630718 34.2513574,6.47892085 34.2513574,5.19611695 C34.2513574,3.91242529 35.0506512,2.94743716 36.2469097,2.94743716 C37.3215753,2.94743716 38.0001704,3.74020109 38.0001704,4.93778066 C38.0028526,5.10112732 37.994806,5.24760665 37.967984,5.3594636 L37.967984,5.3594636 Z M37.109682,4.69631169 C37.109682,4.05002709 36.7788781,3.59372176 36.1798548,3.59372176 C35.6416279,3.59372176 35.2178413,4.05890463 35.1552568,4.69631169 L37.109682,4.69631169 L37.109682,4.69631169 Z" id="Fill-20"></path>
                            <path d="M43.6470825,7.32406225 C42.4150614,7.32406225 41.6166617,6.41056383 41.6166617,5.17037209 C41.6166617,3.8778029 42.4320486,2.95631469 43.7177136,2.95631469 C44.9309592,2.95631469 45.7481343,3.82631319 45.7481343,5.10201507 C45.7481343,6.41056383 44.9059254,7.32406225 43.6470825,7.32406225 L43.6470825,7.32406225 Z M43.682845,3.63633393 C43.0060381,3.63633393 42.5724168,4.26486345 42.5724168,5.14373949 C42.5724168,6.0057482 43.0149788,6.63427773 43.6739044,6.63427773 C44.33283,6.63427773 44.775392,5.96224828 44.775392,5.12598442 C44.775392,4.27374099 44.3417707,3.63633393 43.682845,3.63633393 L43.682845,3.63633393 Z" id="Fill-21"></path>
                            <path d="M50.7852943,7.22907262 L49.8501027,7.22907262 L49.8501027,4.82503596 C49.8501027,4.08464948 49.563108,3.71356849 48.9989532,3.71356849 C48.4437391,3.71356849 48.0610794,4.18762889 48.0610794,4.73892386 L48.0610794,7.22907262 L47.1258879,7.22907262 L47.1258879,4.2391186 C47.1258879,3.86892536 47.1151591,3.47209952 47.0901253,3.04153904 L47.9144529,3.04153904 L47.958262,3.68782363 L47.985084,3.68782363 C48.234528,3.24039584 48.7477211,2.95542694 49.3208165,2.95542694 C50.2041523,2.95542694 50.7852943,3.62745639 50.7852943,4.72116879 L50.7852943,7.22907262" id="Fill-22"></path>
                            <path d="M56.9158954,3.74020109 L55.8850389,3.74020109 L55.8850389,5.77315677 C55.8850389,6.2907171 56.066534,6.54905339 56.4304183,6.54905339 C56.5949262,6.54905339 56.7352943,6.53129831 56.8470524,6.50555346 L56.8729803,7.2122053 C56.6905911,7.28145008 56.4465115,7.31607247 56.1452117,7.31607247 C55.4058202,7.31607247 54.9659405,6.91125684 54.9659405,5.85127908 L54.9659405,3.74020109 L54.3517181,3.74020109 L54.3517181,3.04242679 L54.9659405,3.04242679 L54.9659405,2.27540771 L55.8850389,1.99931635 L55.8850389,3.04153904 L56.9158954,3.04153904 L56.9158954,3.74020109" id="Fill-23"></path>
                            <path d="M61.877954,7.22907262 L60.9400802,7.22907262 L60.9400802,4.84279103 C60.9400802,4.09352702 60.6530855,3.71445624 60.0898248,3.71445624 C59.6043477,3.71445624 59.1537391,4.04203731 59.1537391,4.70518922 L59.1537391,7.22907262 L58.2158653,7.22907262 L58.2158653,1.12132807 L59.1537391,1.12132807 L59.1537391,3.63633393 L59.1716204,3.63633393 C59.4657677,3.18002859 59.8922365,2.95542694 60.43851,2.95542694 C61.3316805,2.95542694 61.877954,3.64432371 61.877954,4.73892386 L61.877954,7.22907262" id="Fill-24"></path>
                            <path d="M66.66567,5.3594636 L63.8538368,5.3594636 C63.8717181,6.15222754 64.3992162,6.59965534 65.1806287,6.59965534 C65.5990509,6.59965534 65.9799224,6.53041056 66.3160907,6.40168629 L66.4627173,7.04797089 C66.0648586,7.22019508 65.5954746,7.30630718 65.0483071,7.30630718 C63.7295618,7.30630718 62.9490434,6.47892085 62.9490434,5.19611695 C62.9490434,3.91242529 63.7474431,2.94743716 64.9437015,2.94743716 C66.0192613,2.94743716 66.6969622,3.74020109 66.6969622,4.93778066 C66.7005385,5.10112732 66.6915979,5.24760665 66.66567,5.3594636 L66.66567,5.3594636 Z M65.8064739,4.69631169 C65.8064739,4.05002709 65.4774581,3.59372176 64.8784348,3.59372176 C64.3402079,3.59372176 63.9155272,4.05890463 63.8538368,4.69631169 L65.8064739,4.69631169 L65.8064739,4.69631169 Z" id="Fill-25"></path>
                        </g>
                    </g>
                </g>
            </g>
        </g>
    </g>
</svg>