<?xml version="1.0" encoding="UTF-8"?>
<svg width="20px" height="20px" viewBox="0 0 20 20" version="1.1" xmlns="http://www.w3.org/2000/svg" xmlns:xlink="http://www.w3.org/1999/xlink">
    <!-- Generator: Sketch 52.6 (67491) - http://www.bohemiancoding.com/sketch -->
    <title>Fill 5</title>
    <desc>Created with Sketch.</desc>
    <g id="Once-Places---DESKTOP" stroke="none" stroke-width="1" fill="none" fill-rule="evenodd">
        <g id="OncePlaces_D_08_submit-dialog_FR" transform="translate(-564.000000, -2028.000000)" fill="#FFFFFF">
            <g id="footer" transform="translate(-13.000000, 1969.000000)">
                <path d="M597,77.9071038 C597,78.5081967 596.51087,79 595.913043,79 L590.804348,79 L590.804348,71.2404372 L593.413043,71.2404372 L593.793478,68.2349727 L590.804348,68.2349727 L590.804348,66.3224044 C590.804348,65.4480874 591.021739,64.8469945 592.271739,64.8469945 L593.847826,64.8469945 L593.847826,62.1147541 C593.576087,62.0601093 592.652174,62.0054645 591.51087,62.0054645 C589.228261,62.0054645 587.652174,63.4262295 587.652174,65.9945355 L587.652174,68.2349727 L585.043478,68.2349727 L585.043478,71.2404372 L587.652174,71.2404372 L587.652174,79 L578.086957,79 C577.48913,79 577,78.5081967 577,77.9071038 L577,60.0928962 C577,59.4918033 577.48913,59 578.086957,59 L595.858696,59 C596.456522,59 596.945652,59.4918033 596.945652,60.0928962 L596.945652,77.9071038 L597,77.9071038 Z" id="Fill-5"></path>
            </g>
        </g>
    </g>
</svg>