<?xml version="1.0" encoding="UTF-8"?>
<svg width="136px" height="40px" viewBox="0 0 136 40" version="1.1" xmlns="http://www.w3.org/2000/svg" xmlns:xlink="http://www.w3.org/1999/xlink">
    <!-- Generator: Sketch 52.6 (67491) - http://www.bohemiancoding.com/sketch -->
    <title>Group 30</title>
    <desc>Created with Sketch.</desc>
    <defs>
        <polygon id="path-1" points="0 0.371 135.323 0.371 135.323 39.9998 0 39.9998"></polygon>
        <polygon id="path-3" points="0 40.6292 135.323 40.6292 135.323 1.0002 0 1.0002"></polygon>
    </defs>
    <g id="Once-Places---DESKTOP" stroke="none" stroke-width="1" fill="none" fill-rule="evenodd">
        <g id="OncePlaces_D_08_submit-dialog_FR" transform="translate(-380.000000, -1868.000000)">
            <g id="Group-4" transform="translate(380.000000, 1867.000000)">
                <g id="Group-30">
                    <g id="Group-3" transform="translate(0.000000, 0.629200)">
                        <mask id="mask-2" fill="white">
                            <use xlink:href="#path-1"></use>
                        </mask>
                        <g id="Clip-2"></g>
                        <path d="M130.3113,39.9998 L5.0123,39.9998 C2.2563,39.9998 -0.0007,37.7698 -0.0007,35.0468 L-0.0007,5.3248 C-0.0007,2.6018 2.2563,0.3708 5.0123,0.3708 L130.3113,0.3708 C133.0663,0.3708 135.3233,2.6018 135.3233,5.3248 L135.3233,35.0468 C135.3233,37.7698 133.0663,39.9998 130.3113,39.9998" id="Fill-1" fill="#000000" mask="url(#mask-2)"></path>
                    </g>
                    <path d="M47.5311,11.1486 C47.5311,11.9766 47.2811,12.6386 46.7861,13.1326 C46.2191,13.7186 45.4801,14.0136 44.5741,14.0136 C43.7081,14.0136 42.9691,13.7136 42.3621,13.1226 C41.7551,12.5236 41.4511,11.7876 41.4511,10.9076 C41.4511,10.0266 41.7551,9.2916 42.3621,8.6966 C42.9691,8.1016 43.7081,7.8016 44.5741,7.8016 C45.0051,7.8016 45.4161,7.8896 45.8081,8.0526 C46.1991,8.2176 46.5171,8.4406 46.7481,8.7156 L46.2241,9.2376 C45.8221,8.7686 45.2741,8.5366 44.5741,8.5366 C43.9421,8.5366 43.3951,8.7546 42.9301,9.1946 C42.4701,9.6356 42.2391,10.2066 42.2391,10.9076 C42.2391,11.6076 42.4701,12.1846 42.9301,12.6256 C43.3951,13.0596 43.9421,13.2826 44.5741,13.2826 C45.2441,13.2826 45.8081,13.0596 46.2531,12.6206 C46.5461,12.3296 46.7131,11.9276 46.7571,11.4156 L44.5741,11.4156 L44.5741,10.6996 L47.4861,10.6996 C47.5211,10.8546 47.5311,11.0036 47.5311,11.1486" id="Fill-4" fill="#FFFFFF"></path>
                    <path d="M47.5311,11.1486 C47.5311,11.9766 47.2811,12.6386 46.7861,13.1326 C46.2191,13.7186 45.4801,14.0136 44.5741,14.0136 C43.7081,14.0136 42.9691,13.7136 42.3621,13.1226 C41.7551,12.5236 41.4511,11.7876 41.4511,10.9076 C41.4511,10.0266 41.7551,9.2916 42.3621,8.6966 C42.9691,8.1016 43.7081,7.8016 44.5741,7.8016 C45.0051,7.8016 45.4161,7.8896 45.8081,8.0526 C46.1991,8.2176 46.5171,8.4406 46.7481,8.7156 L46.2241,9.2376 C45.8221,8.7686 45.2741,8.5366 44.5741,8.5366 C43.9421,8.5366 43.3951,8.7546 42.9301,9.1946 C42.4701,9.6356 42.2391,10.2066 42.2391,10.9076 C42.2391,11.6076 42.4701,12.1846 42.9301,12.6256 C43.3951,13.0596 43.9421,13.2826 44.5741,13.2826 C45.2441,13.2826 45.8081,13.0596 46.2531,12.6206 C46.5461,12.3296 46.7131,11.9276 46.7571,11.4156 L44.5741,11.4156 L44.5741,10.6996 L47.4861,10.6996 C47.5211,10.8546 47.5311,11.0036 47.5311,11.1486 Z" id="Stroke-6" stroke="#FFFFFF" stroke-width="0.16"></path>
                    <polygon id="Fill-8" fill="#FFFFFF" points="52.1507 8.6671 49.4157 8.6671 49.4157 10.5491 51.8807 10.5491 51.8807 11.2651 49.4157 11.2651 49.4157 13.1471 52.1507 13.1471 52.1507 13.8771 48.6407 13.8771 48.6407 7.9381 52.1507 7.9381"></polygon>
                    <polygon id="Stroke-10" stroke="#FFFFFF" stroke-width="0.16" points="52.1507 8.6671 49.4157 8.6671 49.4157 10.5491 51.8807 10.5491 51.8807 11.2651 49.4157 11.2651 49.4157 13.1471 52.1507 13.1471 52.1507 13.8771 48.6407 13.8771 48.6407 7.9381 52.1507 7.9381"></polygon>
                    <polygon id="Fill-12" fill="#FFFFFF" points="55.4109 13.8771 54.6369 13.8771 54.6369 8.6671 52.9589 8.6671 52.9589 7.9381 57.0899 7.9381 57.0899 8.6671 55.4109 8.6671"></polygon>
                    <polygon id="Stroke-14" stroke="#FFFFFF" stroke-width="0.16" points="55.4109 13.8771 54.6369 13.8771 54.6369 8.6671 52.9589 8.6671 52.9589 7.9381 57.0899 7.9381 57.0899 8.6671 55.4109 8.6671"></polygon>
                    <mask id="mask-4" fill="white">
                        <use xlink:href="#path-3"></use>
                    </mask>
                    <g id="Clip-17"></g>
                    <polygon id="Fill-16" fill="#FFFFFF" mask="url(#mask-4)" points="60.079 13.8762 60.852 13.8762 60.852 7.9372 60.079 7.9372"></polygon>
                    <polygon id="Stroke-18" stroke="#FFFFFF" stroke-width="0.16" mask="url(#mask-4)" points="60.079 13.8762 60.852 13.8762 60.852 7.9372 60.079 7.9372"></polygon>
                    <polygon id="Fill-19" fill="#FFFFFF" mask="url(#mask-4)" points="64.2796 13.8771 63.5116 13.8771 63.5116 8.6671 61.8276 8.6671 61.8276 7.9381 65.9636 7.9381 65.9636 8.6671 64.2796 8.6671"></polygon>
                    <polygon id="Stroke-20" stroke="#FFFFFF" stroke-width="0.16" mask="url(#mask-4)" points="64.2796 13.8771 63.5116 13.8771 63.5116 8.6671 61.8276 8.6671 61.8276 7.9381 65.9636 7.9381 65.9636 8.6671 64.2796 8.6671"></polygon>
                    <path d="M69.9471,12.6149 C70.3931,13.0599 70.9351,13.2819 71.5821,13.2819 C72.2231,13.2819 72.7711,13.0599 73.2131,12.6149 C73.6571,12.1709 73.8831,11.5999 73.8831,10.9069 C73.8831,10.2149 73.6571,9.6439 73.2131,9.1989 C72.7711,8.7549 72.2231,8.5319 71.5821,8.5319 C70.9351,8.5319 70.3931,8.7549 69.9471,9.1989 C69.5021,9.6439 69.2761,10.2149 69.2761,10.9069 C69.2761,11.5999 69.5021,12.1709 69.9471,12.6149 M73.7851,13.1129 C73.1921,13.7139 72.4581,14.0129 71.5821,14.0129 C70.7011,14.0129 69.9671,13.7139 69.3741,13.1129 C68.7831,12.5129 68.4881,11.7779 68.4881,10.9069 C68.4881,10.0369 68.7831,9.3009 69.3741,8.7019 C69.9671,8.1009 70.7011,7.8019 71.5821,7.8019 C72.4531,7.8019 73.1871,8.1009 73.7801,8.7069 C74.3761,9.3109 74.6711,10.0419 74.6711,10.9069 C74.6711,11.7779 74.3761,12.5129 73.7851,13.1129" id="Fill-21" fill="#FFFFFF" mask="url(#mask-4)"></path>
                    <path d="M69.9471,12.6149 C70.3931,13.0599 70.9351,13.2819 71.5821,13.2819 C72.2231,13.2819 72.7711,13.0599 73.2131,12.6149 C73.6571,12.1709 73.8831,11.5999 73.8831,10.9069 C73.8831,10.2149 73.6571,9.6439 73.2131,9.1989 C72.7711,8.7549 72.2231,8.5319 71.5821,8.5319 C70.9351,8.5319 70.3931,8.7549 69.9471,9.1989 C69.5021,9.6439 69.2761,10.2149 69.2761,10.9069 C69.2761,11.5999 69.5021,12.1709 69.9471,12.6149 Z M73.7851,13.1129 C73.1921,13.7139 72.4581,14.0129 71.5821,14.0129 C70.7011,14.0129 69.9671,13.7139 69.3741,13.1129 C68.7831,12.5129 68.4881,11.7779 68.4881,10.9069 C68.4881,10.0369 68.7831,9.3009 69.3741,8.7019 C69.9671,8.1009 70.7011,7.8019 71.5821,7.8019 C72.4531,7.8019 73.1871,8.1009 73.7801,8.7069 C74.3761,9.3109 74.6711,10.0419 74.6711,10.9069 C74.6711,11.7779 74.3761,12.5129 73.7851,13.1129 Z" id="Stroke-22" stroke="#FFFFFF" stroke-width="0.16" mask="url(#mask-4)"></path>
                    <polygon id="Fill-23" fill="#FFFFFF" mask="url(#mask-4)" points="75.7567 13.8771 75.7567 7.9381 76.6967 7.9381 79.6187 12.5571 79.6527 12.5571 79.6187 11.4151 79.6187 7.9381 80.3917 7.9381 80.3917 13.8771 79.5847 13.8771 76.5257 9.0301 76.4907 9.0301 76.5257 10.1761 76.5257 13.8771"></polygon>
                    <polygon id="Stroke-24" stroke="#FFFFFF" stroke-width="0.16" mask="url(#mask-4)" points="75.7567 13.8771 75.7567 7.9381 76.6967 7.9381 79.6187 12.5571 79.6527 12.5571 79.6187 11.4151 79.6187 7.9381 80.3917 7.9381 80.3917 13.8771 79.5847 13.8771 76.5257 9.0301 76.4907 9.0301 76.5257 10.1761 76.5257 13.8771"></polygon>
                    <path d="M107.189,30.7222 L109.064,30.7222 L109.064,18.3382 L107.189,18.3382 L107.189,30.7222 Z M124.041,22.7992 L121.892,28.1672 L121.828,28.1672 L119.606,22.7992 L117.591,22.7992 L120.929,30.3012 L119.024,34.4762 L120.977,34.4762 L126.121,22.7992 L124.041,22.7992 Z M113.43,29.3132 C112.818,29.3132 111.966,29.0142 111.966,28.2652 C111.966,27.3072 113.028,26.9382 113.948,26.9382 C114.771,26.9382 115.157,27.1182 115.657,27.3542 C115.511,28.5012 114.513,29.3132 113.43,29.3132 Z M113.655,22.5272 C112.305,22.5272 110.899,23.1162 110.322,24.4232 L111.981,25.1102 C112.338,24.4232 112.995,24.2002 113.689,24.2002 C114.659,24.2002 115.642,24.7762 115.657,25.7932 L115.657,25.9232 C115.319,25.7292 114.595,25.4432 113.704,25.4432 C111.917,25.4432 110.096,26.4162 110.096,28.2302 C110.096,29.8902 111.56,30.9582 113.205,30.9582 C114.463,30.9582 115.157,30.3972 115.594,29.7452 L115.657,29.7452 L115.657,30.7022 L117.463,30.7022 L117.463,25.9512 C117.463,23.7562 115.804,22.5272 113.655,22.5272 Z M102.098,24.3072 L99.436,24.3072 L99.436,20.0602 L102.098,20.0602 C103.495,20.0602 104.292,21.2052 104.292,22.1832 C104.292,23.1422 103.495,24.3072 102.098,24.3072 Z M102.05,18.3382 L97.566,18.3382 L97.566,30.7222 L99.436,30.7222 L99.436,26.0292 L102.05,26.0292 C104.126,26.0292 106.162,24.5452 106.162,22.1832 C106.162,19.8222 104.121,18.3382 102.05,18.3382 Z M77.611,29.3182 C76.32,29.3182 75.238,28.2502 75.238,26.7782 C75.238,25.2942 76.32,24.2102 77.611,24.2102 C78.885,24.2102 79.888,25.2942 79.888,26.7782 C79.888,28.2502 78.885,29.3182 77.611,29.3182 Z M79.756,23.4892 L79.693,23.4892 C79.271,22.9962 78.469,22.5512 77.451,22.5512 C75.316,22.5512 73.364,24.4032 73.364,26.7782 C73.364,29.1412 75.316,30.9782 77.451,30.9782 C78.469,30.9782 79.271,30.5282 79.693,30.0202 L79.756,30.0202 L79.756,30.6252 C79.756,32.2362 78.885,33.1022 77.48,33.1022 C76.335,33.1022 75.624,32.2842 75.331,31.5982 L73.701,32.2692 C74.171,33.3872 75.415,34.7622 77.48,34.7622 C79.678,34.7622 81.532,33.4832 81.532,30.3742 L81.532,22.8072 L79.756,22.8072 L79.756,23.4892 Z M82.825,30.7222 L84.7,30.7222 L84.7,18.3382 L82.825,18.3382 L82.825,30.7222 Z M87.46,26.6342 C87.411,25.0092 88.737,24.1772 89.686,24.1772 C90.43,24.1772 91.062,24.5452 91.273,25.0712 L87.46,26.6342 Z M93.274,25.2302 C92.922,24.2882 91.836,22.5512 89.623,22.5512 C87.43,22.5512 85.604,24.2592 85.604,26.7652 C85.604,29.1252 87.411,30.9782 89.833,30.9782 C91.792,30.9782 92.922,29.7982 93.387,29.1102 L91.933,28.1532 C91.448,28.8542 90.788,29.3182 89.833,29.3182 C88.885,29.3182 88.204,28.8892 87.768,28.0422 L93.471,25.7102 L93.274,25.2302 Z M47.858,23.8432 L47.858,25.6332 L52.184,25.6332 C52.058,26.6342 51.72,27.3692 51.201,27.8822 C50.57,28.5012 49.586,29.1882 47.858,29.1882 C45.195,29.1882 43.11,27.0642 43.11,24.4342 C43.11,21.8012 45.195,19.6782 47.858,19.6782 C49.298,19.6782 50.345,20.2342 51.118,20.9552 L52.395,19.6922 C51.314,18.6722 49.875,17.8882 47.858,17.8882 C44.207,17.8882 41.138,20.8242 41.138,24.4342 C41.138,28.0422 44.207,30.9782 47.858,30.9782 C49.831,30.9782 51.314,30.3392 52.479,29.1412 C53.673,27.9602 54.045,26.3012 54.045,24.9612 C54.045,24.5452 54.01,24.1622 53.948,23.8432 L47.858,23.8432 Z M58.965,29.3182 C57.671,29.3182 56.556,28.2652 56.556,26.7652 C56.556,25.2452 57.671,24.2102 58.965,24.2102 C60.256,24.2102 61.367,25.2452 61.367,26.7652 C61.367,28.2652 60.256,29.3182 58.965,29.3182 Z M58.965,22.5512 C56.605,22.5512 54.687,24.3212 54.687,26.7652 C54.687,29.1882 56.605,30.9782 58.965,30.9782 C61.323,30.9782 63.242,29.1882 63.242,26.7652 C63.242,24.3212 61.323,22.5512 58.965,22.5512 Z M68.298,29.3182 C67.006,29.3182 65.895,28.2652 65.895,26.7652 C65.895,25.2452 67.006,24.2102 68.298,24.2102 C69.59,24.2102 70.706,25.2452 70.706,26.7652 C70.706,28.2652 69.59,29.3182 68.298,29.3182 Z M68.298,22.5512 C65.944,22.5512 64.02,24.3212 64.02,26.7652 C64.02,29.1882 65.944,30.9782 68.298,30.9782 C70.657,30.9782 72.581,29.1882 72.581,26.7652 C72.581,24.3212 70.657,22.5512 68.298,22.5512 Z" id="Fill-25" fill="#FFFFFF" mask="url(#mask-4)"></path>
                    <path d="M10.4598,8.4689 C10.1658,8.7739 9.9948,9.2479 9.9948,9.8619 L9.9948,31.7719 C9.9948,32.3859 10.1658,32.8609 10.4598,33.1649 L10.5328,33.2329 L22.9548,20.9599 L22.9548,20.6699 L10.5328,8.3969 L10.4598,8.4689 Z" id="Fill-26" fill="#5CC3F9" mask="url(#mask-4)"></path>
                    <path d="M27.0911,25.0529 L22.9551,20.9599 L22.9551,20.6699 L27.0961,16.5769 L27.1891,16.6299 L32.0931,19.3879 C33.4921,20.1709 33.4921,21.4589 32.0931,22.2459 L27.1891,24.9989 L27.0911,25.0529 Z" id="Fill-27" fill="#F8D648" mask="url(#mask-4)"></path>
                    <path d="M27.1888,24.9992 L22.9548,20.8142 L10.4598,33.1652 C10.9248,33.6482 11.6828,33.7062 12.5448,33.2242 L27.1888,24.9992" id="Fill-28" fill="#E94D4C" mask="url(#mask-4)"></path>
                    <path d="M27.1888,16.63 L12.5448,8.406 C11.6828,7.928 10.9248,7.986 10.4598,8.469 L22.9548,20.815 L27.1888,16.63 Z" id="Fill-29" fill="#72EC83" mask="url(#mask-4)"></path>
                </g>
            </g>
        </g>
    </g>
</svg>