<?xml version="1.0" encoding="UTF-8"?>
<svg width="20px" height="20px" viewBox="0 0 20 20" version="1.1" xmlns="http://www.w3.org/2000/svg" xmlns:xlink="http://www.w3.org/1999/xlink">
    <!-- Generator: Sketch 52.6 (67491) - http://www.bohemiancoding.com/sketch -->
    <title>Fill 1</title>
    <desc>Created with Sketch.</desc>
    <g id="Once-Places---DESKTOP" stroke="none" stroke-width="1" fill="none" fill-rule="evenodd">
        <g id="OncePlaces_D_08_submit-dialog_FR" transform="translate(-504.000000, -2029.000000)" fill="#FFFFFF">
            <g id="footer" transform="translate(-13.000000, 1969.000000)">
                <path d="M535.092643,77.5409836 C535.092643,77.8688525 534.820163,78.1420765 534.493188,78.1420765 L519.506812,78.1420765 C519.179837,78.1420765 518.907357,77.8688525 518.907357,77.5409836 L518.907357,68.1420765 L521.414169,68.1420765 C521.087193,68.6338798 520.978202,69.5081967 520.978202,70.0546448 C520.978202,73.3879781 523.702997,76.1202186 527.081744,76.1202186 C530.46049,76.1202186 533.185286,73.3879781 533.185286,70.0546448 C533.185286,69.5081967 533.13079,68.6338798 532.694823,68.1420765 L535.201635,68.1420765 L535.201635,77.5409836 L535.092643,77.5409836 Z M526.972752,66.2295082 C529.098093,66.2295082 530.841962,67.9234973 530.841962,70.0546448 C530.841962,72.1857923 529.098093,73.8797814 526.972752,73.8797814 C524.847411,73.8797814 523.158038,72.1857923 523.158038,70.0546448 C523.158038,67.9234973 524.847411,66.2295082 526.972752,66.2295082 L526.972752,66.2295082 Z M531.332425,63.1693989 C531.332425,62.8415301 531.604905,62.568306 531.93188,62.568306 L533.784741,62.568306 C534.111717,62.568306 534.384196,62.8415301 534.384196,63.1693989 L534.384196,65.0273224 C534.384196,65.3551913 534.111717,65.6284153 533.784741,65.6284153 L531.93188,65.6284153 C531.604905,65.6284153 531.332425,65.3551913 531.332425,65.0273224 L531.332425,63.1693989 Z M534.60218,60 L519.39782,60 C518.089918,60 517,61.0382514 517,62.3497268 L517,77.6502732 C517,78.9617486 518.089918,80 519.39782,80 L534.60218,80 C535.910082,80 537,78.9617486 537,77.6502732 L537,62.3497268 C536.945504,61.0928962 535.910082,60 534.60218,60 L534.60218,60 Z" id="Fill-1"></path>
            </g>
        </g>
    </g>
</svg>