<?xml version="1.0" encoding="utf-8"?>
<!-- Generator: Adobe Illustrator 24.2.1, SVG Export Plug-In . SVG Version: 6.00 Build 0)  -->
<svg version="1.1" id="Layer_1" xmlns="http://www.w3.org/2000/svg" xmlns:xlink="http://www.w3.org/1999/xlink" x="0px" y="0px"
	 viewBox="0 0 1024 1024" style="enable-background:new 0 0 1024 1024;" xml:space="preserve">
<style type="text/css">
	.st0{fill:#EEAF41;}
	.st1{fill:url(#SVGID_1_);enable-background:new    ;}
	.st2{fill:url(#SVGID_2_);}
	.st3{fill:url(#SVGID_3_);}
	.st4{fill:url(#SVGID_4_);}
	.st5{fill:url(#SVGID_5_);}
	.st6{fill:#FEFEFE;}
</style>
<desc>Created with Sketch.</desc>
<path class="st0" d="M511.6,895c-5.7-9.9-11.2-19.3-16.6-28.8c-19.6-33.9-39.2-67.8-58.7-101.7c-1.3-2.3-3.1-3.4-5.6-4.1
	C375,746.1,326,719.4,284.2,680c-49.5-46.7-81.4-103.6-96.5-170c-3-13.1-4.8-26.4-6.3-39.8c-1.8-16.1-1.9-32.2-1.3-48.3
	c0.8-19.2,3.6-38.3,8-57c15.3-64.9,47-120.4,95-166.5c22.5-21.6,47.7-39.5,75.4-54c18-9.4,36.5-17.5,56-22.9
	c14.3-4,28.7-7.5,43.4-9.6c13-1.9,26-3,39-4c13.1-1,26-0.4,39,0.4c21.9,1.4,43.5,5.4,64.8,11.2c16.4,4.5,32.2,10.4,47.7,17.3
	c24.4,10.8,46.9,24.9,67.9,41.2c13.4,10.4,26,21.9,37.5,34.4c17.9,19.4,33.5,40.4,46.4,63.4c15.9,28.4,27.8,58.3,34.8,90.1
	c3.3,14.8,5.6,29.8,6.8,45c0.9,11.8,1.8,23.6,1.3,35.5c-0.8,18-2.6,35.9-5.9,53.7c-4.4,23.8-11.4,46.8-20.8,69
	c-9.8,23-22.1,44.6-36.8,64.9c-13,17.9-27.6,34.3-43.9,49.1c-41.6,37.7-89.5,64-144.1,77.6c-2.5,0.6-3.6,2.1-4.7,4.1
	c-19.6,33.9-39.1,67.8-58.7,101.7C522.7,875.8,517.3,885.2,511.6,895z M511.4,837c7.1-12.2,14-23.9,20.8-35.7
	c12-20.9,24-41.8,36-62.7c1.1-2,2.6-3.2,5-3.5c3.7-0.5,7.3-1.4,11-2.4c26.2-6.8,51.2-16.8,74.9-30c20.7-11.5,39.7-25.3,57.1-41.2
	c12.4-11.4,23.9-23.7,34.3-37.1c20.5-26.6,36.4-55.6,47.2-87.3c6.7-19.7,11.7-39.8,14-60.6c1.3-11.3,2.7-22.6,2.9-34
	c0.2-11.8-1.1-23.6-2.1-35.3c-1.1-12.8-3.3-25.3-6.1-37.7c-6.3-27.9-17-54.2-30.9-79.2c-13.4-24-30-45.6-49.3-65.1
	c-7.8-7.9-16.2-15.4-24.9-22.4c-16.4-13.2-33.9-24.6-52.6-34.1c-20.4-10.3-41.8-18.2-64.1-23.7c-22.5-5.6-45.3-8.1-68.3-8.9
	c-5.1-0.2-10.3,0.5-15.4,0.5c-10.8,0-21.5,1.3-32.2,2.6c-16.5,2.1-32.7,6-48.5,10.8c-22.6,6.9-44,16.6-64.2,28.8
	c-23.8,14.4-45.5,31.6-64.5,52.1c-21.8,23.5-39.9,49.5-53.6,78.5c-16.5,35-26.1,71.7-28.4,110.3c-1.3,22.2-0.2,44.3,3.2,66.3
	c3.6,22.7,9.7,44.8,18.4,66.1c17.3,42.3,42.6,79.1,76.4,110c19.3,17.6,40.4,32.5,63.4,44.6c25.1,13.2,51.4,22.8,79.2,28.4
	c2,0.4,3.5,1.2,4.6,3.1c14.6,25.5,29.3,50.9,44,76.3C502.8,822,507,829.3,511.4,837z"/>
<linearGradient id="SVGID_1_" gradientUnits="userSpaceOnUse" x1="371.0199" y1="327.8349" x2="679.5309" y2="481.9208">
	<stop  offset="0" style="stop-color:#4668BA"/>
	<stop  offset="9.232883e-02" style="stop-color:#3C6DCD"/>
	<stop  offset="0.2285" style="stop-color:#3072E3"/>
	<stop  offset="0.3593" style="stop-color:#2975F0"/>
	<stop  offset="0.478" style="stop-color:#2776F5"/>
	<stop  offset="0.6426" style="stop-color:#386CEB"/>
	<stop  offset="0.9675" style="stop-color:#6454D3"/>
	<stop  offset="1" style="stop-color:#6951D0"/>
</linearGradient>
<path class="st1" d="M611.3,452.3c30.2,1.1,59.4,6.5,86.9,19.7c-0.8,1.1-1.7,0.6-2.5,0.6c-35.4,0-70.8,0-106.3,0.1
	c-2.4,0-4-0.6-5.5-2.7c-4.3-6.2-10.8-9.7-17.1-13.5c-1.3-0.8-2.7-0.6-4.2-0.6c-33.7,0-67.5,0-101.2,0c-2.2,0-4.1,0.5-5.9,1.6
	c-5.9,3.5-11.6,7.4-15.6,13.2c-1.1,1.5-2.2,2.1-4.1,2.1c-37.9-0.1-75.8,0-113.7-0.4c27.8-13.8,57.6-18.7,89.3-19.1
	c-4.6-3.5-8.5-6.5-12.4-9.6c-11.8-9.5-22.8-19.9-31.3-32.6c-4.6-6.9-8.1-14.4-9.2-22.8c-1.9-14.9,6.5-26.9,16.3-35
	c1.1-0.9,1.9-0.3,2.7,0.3c16.4,11.7,32.9,23.1,49,35.2c8.4,6.3,8.2,6.7,11.9-2.9c1.7-4.5,3.2-9,4.9-13.5c0.8-2.1,0.3-3.5-1.4-5
	c-10.4-9.1-18.9-19.7-26.1-31.5c-1.9-3.1-2.4-6.2-1.9-9.6c0.7-4.2,1.1-8.5,2.9-12.4c1-2.1,0.4-3.4-1.4-4.9
	c-21.7-17.7-24.3-47.2-6-67.1c18.7-20.2,50.2-20.7,69.1-1c3.9,4,7.2,8.5,9.1,13.7c0.9,2.6,2.2,3.2,4.8,3.1c15.1-1,29.3,2.3,42.6,9.3
	c3.8,2,7.6,4.3,11,6.9c2.3,1.7,3.8,1.6,6.1,0.2c19.3-11.8,43.6-8,58,7c12.8,13.2,16.7,29,10.8,46.5c-6,17.5-18.8,27.6-36.9,31
	c-4.9,0.9-5,0.8-3.7,5.6c2.2,8.1,5.2,16,8.2,23.8c1.1,2.7,1.9,2.9,4.2,1.2c16.3-11.9,32.8-23.6,49.1-35.5c2.1-1.5,3.1-1.4,4.9,0.2
	c16.4,14.5,19.6,32.3,9,51.5c-8.6,15.5-21.4,27.1-34.9,38.1c-3.2,2.6-6.5,5.1-9.7,7.6C611.3,451.6,611.3,452,611.3,452.3z
	 M571.6,383.8c-5.1,2.1-9.7,4.3-14.6,5.9c-20.5,6.7-41.5,7.7-62.7,5.6c-12.9-1.3-25.4-4-37.4-9.2c-3.5-1.5-3.9-1.2-3.6,2.7
	c0,0.8,0.3,1.4,0.5,2.2c2.3,7.8,7.6,13.7,12.5,19.7c6.8,8.2,14.8,15.5,22.2,23.2c1.2,1.2,2.4,1.8,4.1,1.6c13.5-1.5,27.1-1,40.7-0.6
	c1.7,0,2.9-0.4,4.1-1.6c5.1-5.3,10.5-10.4,15.4-15.8c6.2-6.7,12.1-13.8,16.2-22.1C570.6,391.9,572.1,388.3,571.6,383.8z
	 M613.8,315.3c-0.1-12.8-10.3-23.1-23.2-23.2c-13.3-0.1-24.3,10.7-24.1,23.7c0.2,12.6,10.8,22.7,23.8,22.7
	C603.4,338.5,613.8,328.2,613.8,315.3z M407.7,266.4c0,12.8,10.6,23.2,23.7,23.1c13.2-0.1,23.9-10.8,23.8-23.6
	c-0.1-12.6-10.6-22.7-23.6-22.8C418.3,243.1,407.8,253.4,407.7,266.4z"/>
<path class="st0" d="M569.6,627.4c-2.4,8.1-6.2,15.1-12.2,20.7c-2.3,2.2-4.9,3.7-8.1,4.3c-5.5,1-10.7-1.7-12.9-6.9
	c-0.7-1.6-1.1-3.4-1.9-5.9c-1.3,2.5-2.3,4.3-3.3,6.2c-2.3,4.5-4.8,8.9-8.2,12.7c-6.5,7.1-15,5.3-18.3-3.8c-0.3-0.8-0.6-1.7-1-3
	c-1.7,2.2-1.6,4.6-2.5,6.6c-1.1,2.3-2,4.7-3.2,7.1c-1,2-2.3,3.9-5,3.6c-2.5-0.3-3.6-2.2-4.4-4.4c-1.5-3.6-2-7.4-2.3-11.4
	c-7.9,8.9-10.8,9.3-15,2.1c-1.8,3.6-3.4,7.2-5.3,10.6c-1.2,2.2-2.6,4.5-4.3,6.4c-4.3,4.6-9.9,3.2-11.6-2.8c-1.3-4.9-1.6-10-1.4-15
	c0.7-19.8,2.4-39.5,6.8-58.8c1-4.5,2.5-9,4.8-13.1c1.8-3.2,4.5-4.8,8-4.3c3.3,0.5,3.9,3.6,4.2,6.2c2.1,17.4,0.4,34.6-9.9,49
	c-5.4,7.5-6.1,14.8-5.9,22.9c0.1,4.4-0.5,8.9,1.2,13.7c3.4-3.5,5.4-7.3,7-11.1c3.4-8.1,7.2-16,9.7-24.4c0.7-2.4,1.6-4.7,3-6.7
	c1.4-2,3.2-3.4,5.7-3.7c2.7-0.4,5.8,2.3,8.1-2.1c1-1.9,5.2,0.7,5,3.4c-0.5,7-1,13.9-1.9,20.8c-0.6,4.9,0.4,9.7,0.7,14.6
	c2.9-4.7,3.7-10.1,5.2-15.2c1.9-6.7,3.6-13.4,5.5-20.2c0.2-0.6,0.4-1.2,0.7-1.8c2.5-6.8,5.8-9.4,10.6-8.7c4.4,0.6,8.3,5.6,8.9,11.5
	c0.1,1.1,0.5,2.5-1,3c-1.3,0.5-2.4-0.3-3-1.3c-1.2-2.1-2.2-4.4-3.4-6.5c-1-1.9-2.2-2.1-3.2,0.1c-4.8,10.8-6.7,22-2.7,33.5
	c1.3,3.8,2.5,4,5.5,1.3c4.6-4.1,7.6-9.5,10.2-14.9c3.7-7.7,7.5-15.3,10.2-23.4c1.6-4.7,4.3-8.8,8.4-11.8c2.6-1.9,5.4-2.7,8.2-0.8
	c2.6,1.8,1.7,4.6,1.1,7.1c-1.7,6.8-5.3,12.4-10.8,16.5c-2.5,1.9-3.5,4-3.3,6.9c0.2,2.4,0.3,4.9,0.9,7.3c1.4,5.9,3.9,7,9.1,3.8
	c3.5-2.1,6.1-5.2,8.1-8.7c4.2-7.3,7.3-15.1,7.8-23.7c0.2-3.9,1.5-7.6,3.6-10.9c1-1.5,2.2-2.9,4.1-3.3c1.5-0.3,2.9-0.2,3.9,1
	c1,1.2,0.1,2.2-0.4,3.2c-2.8,5.8-4.7,11.8-3,18.3c0.2,0.7,0.5,1.4,0.9,2.5c5.8-4.8,11.7-9.2,18.3-12.6c1.3-0.6,1.2-1.9,1.3-3
	c1.4-13.1,12.2-15,21-10.5c4.9,2.5,8.4,6.4,11,11.2c1,1.8,1.8,2.6,4.1,1.9c4.5-1.5,9.4-2.3,12.9,2c3.8,4.6,1.3,9.1-1.2,13.3
	c-3.5,6-8.4,10.4-15,12.9c-7.5,2.9-15.3,4.8-23.3,5.7c-2.3,0.3-4.6,0.4-6.6-1.4c6.8,0.3,13.3-1.3,19.8-3.1c8.6-2.3,16.4-5.6,20.9-14
	c0.4-0.8,0.9-1.6,1.3-2.4c1.3-3.2,2.6-6.6-0.2-9.4c-2.6-2.6-6-1.6-9.1-0.4c-5.2,1.9-5.2,1.9-7.9-2.8c-3.1-5.4-6.9-10-13-12.2
	c-5-1.8-8.2-0.2-10,4.8c-1.7,4.7-1.1,9.4,0.1,14.1c1.4,5.2,3,10.4,4.4,15.7c0.3,1.1,0.3,2.3,0.2,3.4c-0.1,1.3-0.9,2.2-2.3,2.2
	c-1.5,0-1.9-1-2-2.3c-0.5-6.5-2.8-12.6-4.3-18.9c-0.6-2.5-1.2-3-3.4-1.5c-4.5,3-8.8,6.3-13,9.8c-2,1.7-2.3,3.1-1.2,5.6
	c4,8.7,7.2,17.7,8,27.4c0.9,10.2-4.5,18.7-13.4,21.5c-10,3.2-16.7-1.6-16.9-12.1c-0.1-7,1.9-13.5,4.7-19.8c2.1-4.6,4.2-9.2,7-13.4
	C571.8,633.8,572.3,631,569.6,627.4z M551.6,611.7c-3.9,3.1-4.8,7.8-6.5,12.1C548.3,620.4,551.5,616.9,551.6,611.7
	c0-0.1,0.1-0.2,0.2-0.3C551.7,611.5,551.6,611.6,551.6,611.7z M573.8,637.3c-5.4,9.2-9.6,17.7-11.6,27.3c-0.7,3.5-0.9,6.9,0.1,10.3
	c1.5,5,4.5,6.3,9.1,3.7c5.4-3,8.1-8,8.7-13.8C581.3,655.3,578,646.6,573.8,637.3z M457.5,634c9.5-12.4,14.3-41.5,8.6-51.6
	C460.5,599.2,459.1,616,457.5,634z M485.2,628.8c-3.9,6.2-6.6,19.7-5.2,24.8C487.5,645.1,489.8,634.3,485.2,628.8z"/>
<linearGradient id="SVGID_2_" gradientUnits="userSpaceOnUse" x1="350.6647" y1="471.532" x2="690.8541" y2="538.3728">
	<stop  offset="0" style="stop-color:#4668BA"/>
	<stop  offset="9.232883e-02" style="stop-color:#3C6DCD"/>
	<stop  offset="0.2285" style="stop-color:#3072E3"/>
	<stop  offset="0.3593" style="stop-color:#2975F0"/>
	<stop  offset="0.478" style="stop-color:#2776F5"/>
	<stop  offset="0.6426" style="stop-color:#386CEB"/>
	<stop  offset="0.9675" style="stop-color:#6454D3"/>
	<stop  offset="1" style="stop-color:#6951D0"/>
</linearGradient>
<path class="st2" d="M594.1,529.1c-0.3-18.2,6-31.1,20.4-39.2c10.7-6,22-6.2,33.5-2.2c16.2,5.6,24.5,21.3,23,39.6
	c-0.2,2.9-2.1,2.1-3.6,2.1c-19.6,0.1-39.3,0.1-58.9,0.1c-0.8,0-1.6,0-2.3,0c-2.5-0.2-3.2,0.5-2.1,3.1c1.1,2.7,1.3,5.8,2.4,8.5
	c9.5,24.4,39.7,23.4,53,7.3c1.7-2.1,2.5-2.3,4.6-0.4c5,4.6,5.2,4.5,0.4,9.5c-6.2,6.6-14.1,9.6-22.9,11.1c-17.8,3-34.7-4.7-42.8-19.8
	C595.2,542.1,593.6,534.9,594.1,529.1z M632.6,520.3C632.6,520.3,632.6,520.3,632.6,520.3c7,0.1,14,0,20.9,0.1
	c8.5,0,9.3-1.4,5.8-9.4c-0.1-0.1-0.1-0.2-0.2-0.3c-5.3-11.7-17.4-17.9-31-16c-11,1.5-21.7,12.2-23.7,23.4c-0.5,2.6,1,2.4,2.6,2.4
	C615.5,520.3,624.1,520.3,632.6,520.3z"/>
<linearGradient id="SVGID_3_" gradientUnits="userSpaceOnUse" x1="341.5865" y1="517.7358" x2="681.776" y2="584.5765">
	<stop  offset="0" style="stop-color:#4668BA"/>
	<stop  offset="9.232883e-02" style="stop-color:#3C6DCD"/>
	<stop  offset="0.2285" style="stop-color:#3072E3"/>
	<stop  offset="0.3593" style="stop-color:#2975F0"/>
	<stop  offset="0.478" style="stop-color:#2776F5"/>
	<stop  offset="0.6426" style="stop-color:#386CEB"/>
	<stop  offset="0.9675" style="stop-color:#6454D3"/>
	<stop  offset="1" style="stop-color:#6951D0"/>
</linearGradient>
<path class="st3" d="M389.2,485.2c23.1,0,41.8,18.8,41.7,42c-0.1,23-18.8,41.7-41.7,41.7c-23.3,0-41.8-18.8-41.8-42.3
	C347.5,503.5,366,485.2,389.2,485.2z M421.4,527.2c0-18.1-14.4-32.6-32.4-32.6c-17.7,0-32.3,14.6-32.3,32.3
	c0,18,14.5,32.7,32.4,32.6C406.9,559.5,421.4,544.9,421.4,527.2z"/>
<path class="st0" d="M502.8,195.4c5.8,7.7,11,14.4,15.9,21.4c1.7,2.4,2.8,3,5.2,0.6c4.7-4.9,9.8-9.5,14.7-14.3
	c1.6-1.6,2.5-2.1,3,0.9c1.1,6.9,2.6,13.7,3.7,20.6c0.5,3.2,1.6,3.7,4.6,2.7c6.9-2.5,13.9-4.7,20.9-6.9c1.2-0.4,2.3-1.2,3.9-0.7
	c-6.5,12.1-13,24.1-19.4,36.2c-0.9,1.7-1.8,1.7-3.3,0.6c-15.3-11.6-32.8-16.4-51.8-16c-2.8,0.1-2.2-1.5-2-2.9
	c0.8-7.8,1.7-15.6,2.6-23.5C501.4,208.1,502.1,202.2,502.8,195.4z"/>
<linearGradient id="SVGID_4_" gradientUnits="userSpaceOnUse" x1="344.3643" y1="503.598" x2="684.5538" y2="570.4388">
	<stop  offset="0" style="stop-color:#4668BA"/>
	<stop  offset="9.232883e-02" style="stop-color:#3C6DCD"/>
	<stop  offset="0.2285" style="stop-color:#3072E3"/>
	<stop  offset="0.3593" style="stop-color:#2975F0"/>
	<stop  offset="0.478" style="stop-color:#2776F5"/>
	<stop  offset="0.6426" style="stop-color:#386CEB"/>
	<stop  offset="0.9675" style="stop-color:#6454D3"/>
	<stop  offset="1" style="stop-color:#6951D0"/>
</linearGradient>
<path class="st4" d="M450.9,497.7c9.4-12.5,22.1-13.9,35.3-12.2c13.6,1.8,22.2,12.5,22.5,27.8c0.4,17.6,0.1,35.2,0.2,52.7
	c0,2-0.6,2.6-2.6,2.7c-7.5,0.3-7.5,0.4-7.5-7.1c0-12.7,0-25.3,0-38c0-3.6-0.2-7.2-0.6-10.8c-1.7-14.1-11-20.9-25-18.1
	c-12.2,2.4-20.2,11.7-21.7,25c-1.2,10.7-0.4,21.4-0.6,32.2c-0.1,3.4,0,6.7,0,10.1c0,6.9-1.6,8.2-8.6,6.8c-1.1-0.2-1.6-0.6-1.6-1.7
	c0-1.2,0-2.3,0-3.5c0-22.7,0.1-45.5-0.1-68.2c0-3.2,0.7-4.6,4-4c0.3,0,0.5,0,0.8,0C450.8,491.4,450.8,491.4,450.9,497.7z"/>
<linearGradient id="SVGID_5_" gradientUnits="userSpaceOnUse" x1="347.9686" y1="485.2537" x2="688.1581" y2="552.0945">
	<stop  offset="0" style="stop-color:#4668BA"/>
	<stop  offset="9.232883e-02" style="stop-color:#3C6DCD"/>
	<stop  offset="0.2285" style="stop-color:#3072E3"/>
	<stop  offset="0.3593" style="stop-color:#2975F0"/>
	<stop  offset="0.478" style="stop-color:#2776F5"/>
	<stop  offset="0.6426" style="stop-color:#386CEB"/>
	<stop  offset="0.9675" style="stop-color:#6454D3"/>
	<stop  offset="1" style="stop-color:#6951D0"/>
</linearGradient>
<path class="st5" d="M560.9,485.2c11-0.5,20,3.9,27.9,11.3c1.8,1.7,1.8,2.6-0.2,4.1c-5.4,4.1-5.3,4.2-10.4,0.1
	c-9-7.3-19.1-8.1-29.5-3.9c-11.2,4.5-17.3,13.3-18.7,25.1c-1.6,13.5,2,25,13.8,33.2c9.9,6.8,26.7,7.2,36.4-3.4
	c2.2-2.4,3.4-2.4,5.7-0.3c5.2,4.6,5.3,4.5-0.2,9c-12.1,10.1-26,11.1-40.1,6.2c-14.4-5-23.1-15.9-25.7-30.9
	c-2.7-15.6,0.9-29.6,12.9-40.6C540.1,488.3,549.5,485.2,560.9,485.2z"/>
<path class="st0" d="M406.3,621.2c3.6-7.3,6.2-14.8,10.3-21.7c2.6-4.4,5.6-8.4,9.2-11.9c1.6-1.6,3.3-2.9,5.2-4
	c8.7-4.8,17.3-1.3,19.6,8.3c2.9,12.1,0.9,23.9-3.2,35.4c-3.2,9.1-8.2,17-16.8,22c-9.8,5.8-15.3,4.7-22.3-4.2
	c-0.4-0.5-0.8-0.9-1.7-1.9c-1.3,4.1-1.5,7.9-1.8,11.6c-0.7,9.5-0.5,19.1-2.2,28.6c-0.3,1.9-1,3.6-3.4,3.3c-1.9-0.2-2.9-0.9-3-3.1
	c-0.1-16,0.4-32.1,1.3-48.1c0.7-12.6,1.7-25.3,2.7-37.9c0.3-3.5,0.9-6.9,1.2-10.4c0.3-2.4,1.2-4,3.9-3.7c2.8,0.3,2.6,2.5,2.5,4.4
	c-0.3,7.7-0.8,15.5-1.2,23.2C406.6,614.5,406.4,617.9,406.3,621.2z M444.4,602.8c-0.7-4.6-0.3-9.9-3.1-14.5c-2-3.3-4.1-3.9-7.4-2
	c-2.8,1.7-5.1,3.9-7.2,6.4c-7.5,8.7-11.9,19-15.2,29.8c-1.6,5.1-4.5,10-1.7,16.1c2,4.4,4.3,8.1,8.3,10.1c3.6,1.8,6.5-1.4,9.3-3.4
	c0.7-0.5,1.4-1.2,2-1.9C439.8,632.1,443.6,618.3,444.4,602.8z"/>
<path class="st0" d="M608.8,637.2c-0.2-1.5,1-2.3,0.4-3.3c-3.2-5.1-2.4-11.2-4.5-16.6c-1.3-3.3,1-8.4,4.2-9.9
	c3.5-1.7,5.8,0.4,8.1,2.7c2.1,2.1,3.5,4.8,4.8,7.4c1.2,2.4,2.9,3.5,5.6,2.5c1.5-0.5,3-0.5,4.6,0.1c2.6,0.9,3.5,2.5,2,5
	c-1.8,3.1-4,5.7-7.5,6.9C620.7,633.9,615,635.8,608.8,637.2z M624.8,628.9c-2.3,1.2-5.2,0.9-7.7,3.5
	C620.8,632.6,622.9,630.9,624.8,628.9z"/>
<path class="st6" d="M571.6,383.8c0.5,4.5-1,8-2.7,11.5c-4.1,8.3-9.9,15.4-16.2,22.1c-5,5.4-10.3,10.5-15.4,15.8
	c-1.2,1.2-2.4,1.6-4.1,1.6c-13.6-0.4-27.1-0.8-40.7,0.6c-1.7,0.2-3-0.4-4.1-1.6c-7.4-7.7-15.4-15-22.2-23.2
	c-4.9-5.9-10.2-11.9-12.5-19.7c-0.2-0.7-0.5-1.4-0.5-2.2c-0.3-3.9,0.1-4.2,3.6-2.7c12,5.1,24.5,7.9,37.4,9.2
	c21.3,2.1,42.3,1.1,62.7-5.6C561.8,388.1,566.5,385.9,571.6,383.8z"/>
<path class="st6" d="M613.8,315.3c0.1,12.9-10.3,23.1-23.6,23.2c-13,0.1-23.6-10.1-23.8-22.7c-0.2-13,10.8-23.8,24.1-23.7
	C603.4,292.2,613.7,302.5,613.8,315.3z"/>
<path class="st6" d="M407.7,266.4c0-13.1,10.6-23.3,23.9-23.3c13,0,23.6,10.1,23.6,22.8c0.1,12.8-10.7,23.5-23.8,23.6
	C418.3,289.6,407.7,279.3,407.7,266.4z"/>
<path class="st6" d="M573.8,637.3c4.2,9.3,7.6,18,6.4,27.5c-0.7,5.8-3.4,10.8-8.7,13.8c-4.6,2.6-7.6,1.3-9.1-3.7
	c-1-3.4-0.9-6.8-0.1-10.3C564.2,655,568.4,646.4,573.8,637.3z"/>
<path class="st6" d="M457.5,634c1.6-17.9,3-34.8,8.6-51.6C471.8,592.4,467,621.6,457.5,634z"/>
<path class="st6" d="M485.2,628.8c4.6,5.6,2.3,16.3-5.2,24.8C478.5,648.4,481.3,634.9,485.2,628.8z"/>
<path class="st6" d="M551.5,611.7c0,5.2-3.2,8.7-6.4,12.2C546.7,619.6,547.6,614.8,551.5,611.7L551.5,611.7z"/>
<path class="st6" d="M551.6,611.7c0.1-0.1,0.1-0.2,0.2-0.3C551.7,611.5,551.6,611.6,551.6,611.7
	C551.5,611.7,551.6,611.7,551.6,611.7z"/>
<path class="st6" d="M632.6,520.3c-8.5,0-17.1,0-25.6,0c-1.6,0-3.1,0.2-2.6-2.4c2-11.2,12.7-21.9,23.7-23.4c13.7-1.9,25.7,4.4,31,16
	c0.1,0.1,0.1,0.2,0.2,0.3c3.5,8.1,2.7,9.4-5.8,9.4C646.5,520.3,639.6,520.3,632.6,520.3C632.6,520.3,632.6,520.3,632.6,520.3z"/>
<path class="st6" d="M444.4,602.8c-0.8,15.5-4.6,29.3-14.9,40.7c-0.6,0.7-1.2,1.3-2,1.9c-2.8,2-5.7,5.2-9.3,3.4
	c-4-2-6.3-5.7-8.3-10.1c-2.8-6.2,0.1-11,1.7-16.1c3.3-10.8,7.6-21.1,15.2-29.8c2.1-2.5,4.4-4.7,7.2-6.4c3.3-2,5.4-1.4,7.4,2
	C444.1,592.9,443.8,598.2,444.4,602.8z"/>
<path class="st6" d="M624.8,628.9c-1.9,2-4,3.7-7.7,3.5C619.6,629.8,622.5,630.1,624.8,628.9z"/>
</svg>
