<?xml version="1.0" encoding="UTF-8"?>
<svg width="54px" height="44px" viewBox="0 0 54 44" version="1.1" xmlns="http://www.w3.org/2000/svg" xmlns:xlink="http://www.w3.org/1999/xlink">
    <!-- Generator: Sketch 52.6 (67491) - http://www.bohemiancoding.com/sketch -->
    <title>Fill 3</title>
    <desc>Created with Sketch.</desc>
    <g id="Once-Places---MOBILE" stroke="none" stroke-width="1" fill="none" fill-rule="evenodd">
        <g id="OncePlaces_M_01_landing" transform="translate(-346.000000, -3355.000000)" fill="#FFFFFF">
            <g id="footer" transform="translate(-158.000000, 3277.000000)">
                <path d="M556.128,78.8407643 C553.968,80.1019108 551.66256,81.0828025 549.072,81.5031847 C547.05456,79.4012739 544.17456,78 541.008,78 C534.96,78 529.92,82.9044586 529.92,89.0700637 C529.92,89.910828 530.06256,90.7515924 530.208,91.5923567 C520.992,91.1719745 512.928,86.6878981 507.45456,80.1019108 C506.448,81.7834395 506.01456,83.6050955 506.01456,85.7070064 C506.01456,89.4904459 508.032,92.8535032 510.912,94.955414 C509.04,94.955414 507.45456,94.3949045 505.872,93.5541401 L505.872,93.6942675 C505.872,99.0191083 509.61456,103.503185 514.8,104.484076 C513.93456,104.764331 512.928,104.904459 511.92,104.904459 C511.2,104.904459 510.48,104.904459 509.90256,104.764331 C511.34256,109.10828 515.37456,112.33121 520.272,112.471338 C516.528,115.414013 511.77456,117.235669 506.592,117.235669 C505.728,117.235669 504.86256,117.235669 504,117.095541 C508.89456,120.178344 514.65456,122 520.992,122 C541.29456,122 552.528,105.184713 552.528,90.611465 L552.528,89.2101911 C554.688,87.6687898 556.56,85.7070064 558,83.4649682 C555.98256,84.3057325 553.82256,85.0063694 551.66256,85.1464968 C553.53456,83.6050955 555.26256,81.5031847 556.128,78.8407643" id="Fill-3"></path>
            </g>
        </g>
    </g>
</svg>